<svg width="9" height="10" viewBox="0 0 9 10" fill="none" xmlns="http://www.w3.org/2000/svg">
<path fill-rule="evenodd" clip-rule="evenodd" d="M4.49999 10C4.30108 10 4.11032 9.92098 3.96966 9.78033C3.82901 9.63968 3.74999 9.44891 3.74999 9.25V2.612L1.78999 4.77C1.65058 4.9064 1.46351 4.98312 1.26847 4.98389C1.07343 4.98466 0.885764 4.90942 0.745272 4.77413C0.604781 4.63885 0.522517 4.45415 0.515931 4.25922C0.509345 4.06429 0.578954 3.87446 0.709993 3.73L3.95999 0.23C4.02996 0.157413 4.11383 0.0996768 4.20662 0.0602412C4.2994 0.0208056 4.39918 0.000480652 4.49999 0.000480652C4.60081 0.000480652 4.70059 0.0208056 4.79337 0.0602412C4.88615 0.0996768 4.97003 0.157413 5.03999 0.23L8.28999 3.73C8.36174 3.80019 8.41867 3.88407 8.45741 3.97667C8.49614 4.06927 8.5159 4.1687 8.5155 4.26907C8.5151 4.36945 8.49456 4.46872 8.45509 4.56101C8.41563 4.6533 8.35804 4.73672 8.28574 4.80635C8.21343 4.87597 8.12789 4.93037 8.03418 4.96633C7.94047 5.00229 7.84049 5.01907 7.74018 5.01568C7.63986 5.01229 7.54125 4.9888 7.45017 4.9466C7.3591 4.9044 7.27743 4.84435 7.20999 4.77L5.24999 2.612V9.25C5.24999 9.44891 5.17098 9.63968 5.03032 9.78033C4.88967 9.92098 4.69891 10 4.49999 10Z" fill="#4D4D4D"/>
</svg>
