<svg width="14" height="17" viewBox="0 0 14 17" fill="none" xmlns="http://www.w3.org/2000/svg">
<path fill-rule="evenodd" clip-rule="evenodd" d="M2.04999 2.05C3.36281 0.737179 5.14338 -0.000356674 6.99999 -0.000356674C8.8566 -0.000356674 10.6372 0.737179 11.95 2.05C13.2628 3.36282 14.0003 5.14339 14.0003 7C14.0003 8.85661 13.2628 10.6372 11.95 11.95L6.99999 16.9L2.04999 11.95C1.3999 11.3 0.88422 10.5283 0.532393 9.67895C0.180565 8.82962 -0.000518799 7.91931 -0.000518799 7C-0.000518799 6.08069 0.180565 5.17038 0.532393 4.32105C0.88422 3.47173 1.3999 2.70002 2.04999 2.05V2.05ZM6.99999 9C7.53042 9 8.03913 8.78929 8.4142 8.41421C8.78927 8.03914 8.99999 7.53043 8.99999 7C8.99999 6.46957 8.78927 5.96086 8.4142 5.58579C8.03913 5.21071 7.53042 5 6.99999 5C6.46955 5 5.96085 5.21071 5.58577 5.58579C5.2107 5.96086 4.99999 6.46957 4.99999 7C4.99999 7.53043 5.2107 8.03914 5.58577 8.41421C5.96085 8.78929 6.46955 9 6.99999 9Z" fill="#4D4D4D"/>
</svg>
