<svg width="16" height="16" viewBox="0 0 16 16" fill="none" xmlns="http://www.w3.org/2000/svg">
<path fill-rule="evenodd" clip-rule="evenodd" d="M7.99999 0C8.2652 0 8.51956 0.105357 8.70709 0.292893C8.89463 0.48043 8.99999 0.734784 8.99999 1V2.323L12.954 3.905L14.553 3.105C14.7904 2.98645 15.0651 2.96705 15.3168 3.05106C15.5684 3.13508 15.7764 3.31563 15.895 3.553C16.0135 3.79037 16.0329 4.06511 15.9489 4.31678C15.8649 4.56846 15.6844 4.77645 15.447 4.895L14.214 5.511L15.952 10.931C16.0109 11.1149 16.0154 11.3118 15.9648 11.4982C15.9142 11.6845 15.8108 11.8522 15.667 11.981C14.9341 12.6381 13.9843 13.001 13 13C12.0157 13.001 11.0658 12.6381 10.333 11.981C10.1892 11.8522 10.0858 11.6845 10.0352 11.4982C9.98462 11.3118 9.98906 11.1149 10.048 10.931L11.763 5.582L8.99999 4.477V14H11C11.2652 14 11.5196 14.1054 11.7071 14.2929C11.8946 14.4804 12 14.7348 12 15C12 15.2652 11.8946 15.5196 11.7071 15.7071C11.5196 15.8946 11.2652 16 11 16H4.99999C4.73477 16 4.48042 15.8946 4.29288 15.7071C4.10534 15.5196 3.99999 15.2652 3.99999 15C3.99999 14.7348 4.10534 14.4804 4.29288 14.2929C4.48042 14.1054 4.73477 14 4.99999 14H6.99999V4.477L4.23699 5.582L5.95199 10.931C6.01091 11.1149 6.01535 11.3118 5.96478 11.4982C5.91421 11.6845 5.81078 11.8522 5.66699 11.981C4.93415 12.6381 3.98426 13.001 2.99999 13C2.01572 13.001 1.06582 12.6381 0.332986 11.981C0.189193 11.8522 0.0857663 11.6845 0.0351933 11.4982C-0.0153797 11.3118 -0.0109363 11.1149 0.0479866 10.931L1.78599 5.511L0.552987 4.894C0.324258 4.77066 0.152527 4.56312 0.0741702 4.31535C-0.0041869 4.06758 0.0169845 3.79904 0.1332 3.56661C0.249415 3.33418 0.451546 3.15611 0.696777 3.07014C0.942007 2.98416 1.21108 2.99702 1.44699 3.106L3.04599 3.905L6.99999 2.323V1C6.99999 0.734784 7.10534 0.48043 7.29288 0.292893C7.48042 0.105357 7.73477 0 7.99999 0ZM2.99999 8.274L2.18199 10.826C2.43199 10.938 2.70799 11 2.99999 11C3.29199 11 3.56899 10.938 3.81799 10.826L2.99999 8.274ZM13 8.274L12.182 10.826C12.432 10.938 12.708 11 13 11C13.292 11 13.569 10.938 13.818 10.826L13 8.274Z" fill="#4D4D4D"/>
</svg>
